<?xml version="1.0" standalone="no"?>
<!DOCTYPE svg PUBLIC "-//W3C//DTD SVG 20010904//EN"
 "http://www.w3.org/TR/2001/REC-SVG-20010904/DTD/svg10.dtd">
<svg version="1.0" xmlns="http://www.w3.org/2000/svg"
 width="512.000000pt" height="512.000000pt" viewBox="0 0 512.000000 512.000000"
 preserveAspectRatio="xMidYMid meet">
<metadata>
Created by potrace 1.14, written by Peter Selinger 2001-2017
</metadata>
<g transform="translate(0.000000,512.000000) scale(0.100000,-0.100000)"
fill="#000000" stroke="none">
<path d="M2379 5026 c-2 -2 -35 -6 -74 -10 -146 -13 -410 -68 -495 -103 -8 -3
-22 -7 -30 -9 -46 -10 -243 -94 -357 -153 -230 -120 -418 -257 -598 -436 -120
-119 -151 -154 -232 -260 -172 -227 -310 -493 -394 -760 -13 -38 -23 -74 -25
-80 -1 -5 -6 -28 -12 -50 -17 -63 -43 -196 -48 -245 -3 -25 -7 -51 -10 -59 -8
-23 -18 -216 -18 -321 1 -143 17 -325 40 -445 2 -11 6 -31 9 -45 2 -14 20 -82
40 -153 185 -675 644 -1236 1270 -1554 100 -51 313 -139 370 -154 17 -4 82
-21 146 -37 64 -17 133 -33 155 -36 21 -4 66 -11 99 -16 104 -16 216 -24 350
-23 123 0 292 10 325 18 8 2 35 7 60 10 25 3 52 8 60 10 8 2 31 7 50 10 116
20 334 88 482 151 652 278 1161 834 1381 1509 30 91 81 304 92 380 4 28 9 64
11 80 17 124 22 374 10 520 -6 75 -29 226 -51 334 -9 49 -57 208 -87 291 -186
524 -563 986 -1038 1274 -193 117 -467 234 -665 285 -77 19 -257 53 -360 66
-51 7 -450 16 -456 11z"/>
</g>
</svg>
