<?xml version="1.0" standalone="no"?>
<!DOCTYPE svg PUBLIC "-//W3C//DTD SVG 20010904//EN"
 "http://www.w3.org/TR/2001/REC-SVG-20010904/DTD/svg10.dtd">
<svg version="1.0" xmlns="http://www.w3.org/2000/svg"
 width="512.000000pt" height="512.000000pt" viewBox="0 0 512.000000 512.000000"
 preserveAspectRatio="xMidYMid meet">
<metadata>
Created by potrace 1.16, written by Peter Selinger 2001-2019
</metadata>
<g transform="translate(0.000000,512.000000) scale(0.100000,-0.100000)"
fill="#000000" stroke="none">
<path d="M2305 4967 c-201 -22 -502 -106 -700 -195 -809 -365 -1355 -1111
-1461 -1993 -71 -590 149 -1273 569 -1774 348 -414 855 -720 1376 -829 341
-72 611 -72 952 0 355 74 752 264 1036 495 555 452 894 1122 919 1819 18 486
-154 1029 -463 1463 -32 45 -130 154 -218 242 -263 264 -341 331 -471 401
-219 117 -321 168 -415 204 -57 22 -122 49 -144 60 -76 36 -320 84 -540 106
-92 9 -362 10 -440 1z m848 -1035 c20 -13 48 -43 62 -66 24 -40 25 -51 25
-189 l0 -146 318 -3 317 -3 57 -28 c72 -35 130 -93 165 -165 l28 -57 0 -935 0
-935 -22 -47 c-28 -62 -100 -138 -156 -166 -24 -12 -68 -26 -97 -32 -33 -6
-507 -10 -1294 -10 -1376 0 -1312 -3 -1412 65 -54 37 -78 65 -115 135 l-24 45
0 945 0 945 34 63 c40 74 84 115 161 151 l55 26 313 3 312 3 0 117 c1 186 24
247 112 291 43 21 48 21 583 19 l540 -3 38 -23z"/>
<path d="M2217 3622 c-10 -10 -17 -35 -17 -55 l0 -37 365 0 365 0 0 38 c0 73
5 72 -367 72 -307 0 -331 -1 -346 -18z"/>
<path d="M2441 3085 c-35 -8 -66 -17 -69 -20 -3 -3 26 -5 64 -5 88 0 148 -27
232 -105 62 -57 62 -57 62 -113 l0 -55 -77 7 c-43 3 -92 9 -110 12 -28 5 -38
0 -80 -40 l-48 -45 103 -103 103 -103 84 87 83 88 4 65 c3 53 9 71 34 102 38
48 87 73 142 73 24 0 41 4 38 9 -14 22 -158 95 -241 123 -109 37 -227 45 -324
23z"/>
<path d="M3236 2594 c-14 -72 -104 -134 -197 -134 -32 0 -45 -9 -113 -80 -42
-44 -76 -84 -76 -89 0 -14 341 -342 349 -336 18 10 83 161 102 233 22 86 26
192 10 267 -15 67 -53 175 -62 175 -4 0 -10 -16 -13 -36z"/>
<path d="M2138 2435 c-21 -24 -38 -52 -38 -62 0 -10 -17 -36 -38 -56 -34 -34
-43 -37 -93 -37 -53 0 -57 2 -104 50 -60 61 -70 52 -55 -47 19 -139 71 -269
149 -372 l41 -55 0 37 c0 147 79 237 210 237 30 0 45 9 99 64 46 47 61 68 55
78 -5 9 -49 58 -99 111 l-90 95 -37 -43z"/>
<path d="M2521 1963 c-56 -63 -61 -71 -61 -116 0 -26 -6 -62 -14 -80 -18 -45
-78 -95 -123 -102 -21 -4 -42 -8 -47 -9 -18 -4 106 -46 186 -62 123 -25 254
-5 390 59 l68 32 -159 170 c-87 93 -163 171 -169 173 -5 1 -37 -28 -71 -65z"/>
</g>
</svg>
